<svg width="100%" viewBox="0 0 640 190" role="img">
      <title>접신(신과 만남)과 하느님의 느낌 비교</title>
      <desc>왼쪽은 신과의 접신(떨림·이상 현상), 오른쪽은 하느님과 항상 함께 있음(평온한 느낌)</desc>
      <rect width="640" height="190" fill="none"/>

      <!-- 왼쪽: 접신 -->
      <rect x="30" y="20" width="270" height="150" rx="8" fill="none" stroke="#e07a30" stroke-width="1"/>
      <text x="165" y="44" text-anchor="middle" font-family="Noto Serif KR,serif" font-size="12" fill="#e07a30" font-weight="600">신(神)과의 접신</text>
      <!-- 사람 -->
      <ellipse cx="165" cy="105" rx="28" ry="38" fill="#2a1808" stroke="#e07a30" stroke-width="1"/>
      <text x="165" y="109" text-anchor="middle" font-family="Noto Sans KR,sans-serif" font-size="11" fill="#e07a30">🧑</text>
      <!-- 떨림 선 -->
      <path d="M100 80 Q108 68 115 80 Q122 92 130 80 Q138 68 145 80" fill="none" stroke="#e07a30" stroke-width="1.5" opacity="0.7"/>
      <path d="M185 80 Q193 68 200 80 Q207 92 215 80 Q222 68 230 80" fill="none" stroke="#e07a30" stroke-width="1.5" opacity="0.7"/>
      <path d="M100 125 Q108 113 115 125 Q122 137 130 125 Q138 113 145 125" fill="none" stroke="#e07a30" stroke-width="1.5" opacity="0.7"/>
      <path d="M185 125 Q193 113 200 125 Q207 137 215 125 Q222 113 230 125" fill="none" stroke="#e07a30" stroke-width="1.5" opacity="0.7"/>
      <!-- 신 아이콘 -->
      <ellipse cx="165" cy="62" rx="18" ry="14" fill="#3a1a08" stroke="#e07a30" stroke-width="1"/>
      <text x="165" y="67" text-anchor="middle" font-family="Noto Sans KR,sans-serif" font-size="9" fill="#e07a30">대신</text>
      <line x1="165" y1="76" x2="165" y2="68" stroke="#e07a30" stroke-width="1" marker-end="url(#a1)"/>
      <text x="165" y="168" text-anchor="middle" font-family="Noto Sans KR,sans-serif" font-size="10" fill="#9a6030">몸 떨림·이상 현상 발생</text>

      <!-- 오른쪽: 하느님 느낌 -->
      <rect x="340" y="20" width="270" height="150" rx="8" fill="none" stroke="#6ab0d4" stroke-width="1"/>
      <text x="475" y="44" text-anchor="middle" font-family="Noto Serif KR,serif" font-size="12" fill="#6ab0d4" font-weight="600">하느님과 항상 함께</text>
      <!-- 큰 원 = 하느님 기운 -->
      <ellipse cx="475" cy="105" rx="100" ry="55" fill="#0a1520" stroke="#6ab0d4" stroke-width="1" stroke-dasharray="5,4"/>
      <text x="475" y="66" text-anchor="middle" font-family="Noto Sans KR,sans-serif" font-size="9" fill="#4a90b4">하느님(천지 에너지)</text>
      <!-- 사람 안에 있음 -->
      <ellipse cx="475" cy="110" rx="28" ry="38" fill="#1a2030" stroke="#4a90b4" stroke-width="1"/>
      <text x="475" y="114" text-anchor="middle" font-family="Noto Sans KR,sans-serif" font-size="11" fill="#6ab0d4">🧑</text>
      <!-- 조용한 물결 -->
      <path d="M390 100 Q410 96 430 100 Q450 104 470 100" fill="none" stroke="#4a90b4" stroke-width="0.8" opacity="0.5"/>
      <path d="M390 118 Q410 114 430 118 Q450 122 470 118" fill="none" stroke="#4a90b4" stroke-width="0.8" opacity="0.5"/>
      <text x="475" y="168" text-anchor="middle" font-family="Noto Sans KR,sans-serif" font-size="10" fill="#4a7090">항상 함께 · 느낌으로 앎</text>
    </svg>